<svg width="68" height="75" viewBox="0 0 68 75" fill="none" xmlns="http://www.w3.org/2000/svg">
<path fill-rule="evenodd" clip-rule="evenodd" d="M39.8559 64.1283C54.9951 61.2156 65.9427 47.4094 64.8918 31.6306C63.754 14.5476 48.9832 1.62148 31.9002 2.75924C14.8172 3.897 1.89109 18.6678 3.02885 35.7508C4.05485 51.1558 16.1672 63.1805 31.0641 64.5598L36.0532 72.6377L39.8559 64.1283Z" fill="#5D0E41"/>
<circle cx="33.9608" cy="33.6904" r="24" transform="rotate(-3.81038 33.9608 33.6904)" fill="white"/>
<path fill-rule="evenodd" clip-rule="evenodd" d="M30.7812 29.5C30.7812 25.2369 34.2369 21.7812 38.5 21.7812C42.7631 21.7812 46.2188 25.2369 46.2188 29.5C46.2188 33.7631 42.7631 37.2188 38.5 37.2188C37.3743 37.2188 36.3049 36.9778 35.3406 36.5447C32.6606 37.2821 31.6635 36.8269 31.5 36.5C32.4541 36.182 32.8392 35.4214 32.957 34.8718C31.6102 33.4823 30.7812 31.588 30.7812 29.5ZM37.6735 28.3584C38.5807 27.9048 39.6028 28.725 39.3566 29.709L38.7953 31.9542L38.8285 31.9383C38.968 31.877 39.1258 31.8717 39.2691 31.9234C39.4125 31.9752 39.5304 32.08 39.5986 32.2163C39.6667 32.3526 39.6798 32.5099 39.6352 32.6557C39.5906 32.8014 39.4917 32.9244 39.359 32.9992L39.3273 33.0166C38.4193 33.4702 37.3972 32.65 37.6434 31.666L38.2055 29.4208L38.1723 29.4367C38.1022 29.4756 38.025 29.4999 37.9453 29.5082C37.8657 29.5165 37.7851 29.5086 37.7086 29.485C37.632 29.4613 37.561 29.4224 37.4999 29.3706C37.4388 29.3188 37.3888 29.2552 37.3529 29.1835C37.317 29.1119 37.296 29.0337 37.2912 28.9538C37.2863 28.8738 37.2977 28.7936 37.3246 28.7182C37.3515 28.6427 37.3934 28.5735 37.4478 28.5147C37.5022 28.4558 37.5679 28.4086 37.641 28.3758L37.6735 28.3584ZM38.5 27.125C38.6575 27.125 38.8085 27.0624 38.9198 26.9511C39.0312 26.8397 39.0938 26.6887 39.0938 26.5312C39.0938 26.3738 39.0312 26.2228 38.9198 26.1114C38.8085 26.0001 38.6575 25.9375 38.5 25.9375C38.3425 25.9375 38.1915 26.0001 38.0802 26.1114C37.9688 26.2228 37.9062 26.3738 37.9062 26.5312C37.9062 26.6887 37.9688 26.8397 38.0802 26.9511C38.1915 27.0624 38.3425 27.125 38.5 27.125ZM35.7908 38.5643L40.1946 42.5683C40.4034 42.7576 40.5299 43.0211 40.5471 43.3024C40.5643 43.5838 40.4708 43.8607 40.2866 44.0741L38.2716 46.426C38.0841 46.6135 37.8343 46.7256 37.5696 46.7413C37.5339 46.7434 37.3996 46.7499 37.1807 46.7499C35.6836 46.7499 30.2474 46.4325 25.9076 42.0938C20.9329 37.1169 21.2427 30.7014 21.259 30.4306C21.2741 30.1657 21.3858 29.9155 21.5731 29.7275L23.924 27.7114C24.138 27.528 24.4152 27.4352 24.6966 27.4528C24.9779 27.4704 25.2414 27.597 25.4309 27.8057L29.4338 32.2084C29.6233 32.4164 29.7243 32.69 29.7156 32.9712C29.707 33.2525 29.5892 33.5193 29.3872 33.7153L26.7233 36.3088C26.8392 36.9284 27.2303 38.1862 28.5216 39.4786C29.813 40.7667 31.0675 41.1578 31.6915 41.2769L34.2839 38.6108C34.4798 38.4089 34.7467 38.2911 35.0279 38.2824C35.3092 38.2737 35.5828 38.3748 35.7908 38.5643Z" fill="#5D0E41"/>
</svg>
