<svg width="63" height="71" viewBox="0 0 63 71" fill="none" xmlns="http://www.w3.org/2000/svg">
<path fill-rule="evenodd" clip-rule="evenodd" d="M35.2157 61.9177C50.5038 59.9293 62.2692 46.813 62.1779 30.9995C62.0791 13.879 48.12 0.0801554 30.9995 0.178977C13.8789 0.277799 0.080111 14.2369 0.178933 31.3574C0.268048 46.7963 11.6283 59.5339 26.414 61.8148L30.9035 70.1807L35.2157 61.9177Z" fill="#5D0E41"/>
<circle cx="31.1787" cy="31.1785" r="24" transform="rotate(-0.330715 31.1787 31.1785)" fill="white"/>
<path d="M19.1983 31.5C19.1176 31.5 19.0376 31.4841 18.963 31.4532C18.8884 31.4223 18.8207 31.377 18.7636 31.3199C18.7065 31.2628 18.6612 31.195 18.6303 31.1205C18.5994 31.0459 18.5835 30.9659 18.5835 30.8852C18.5835 25.1424 22.5179 20.3193 27.8383 18.9631C27.6421 19.2142 27.4593 19.4754 27.2906 19.7458C26.34 21.2674 25.6786 23.2398 25.2149 25.1347C24.8035 26.8553 24.4963 28.5992 24.2952 30.3569C24.2449 30.7844 24.2048 31.1706 24.1738 31.5H19.1983ZM44.4168 30.8852C44.4168 30.9659 44.4009 31.0459 44.37 31.1205C44.3391 31.195 44.2938 31.2628 44.2367 31.3199C44.1797 31.377 44.1119 31.4223 44.0373 31.4532C43.9627 31.4841 43.8827 31.5 43.802 31.5H38.8265C38.7899 31.1185 38.749 30.7374 38.7038 30.3569C38.5031 28.5992 38.1964 26.8553 37.7854 25.1347C37.3204 23.2398 36.6617 21.2674 35.7097 19.7458C35.5411 19.4754 35.3583 19.2142 35.162 18.9631C40.4837 20.3193 44.4168 25.1424 44.4168 30.8852ZM30.5314 41.8333V31.5H26.1204C26.1462 31.2253 26.1794 30.92 26.2198 30.5842C26.3826 29.215 26.6551 27.4003 27.0982 25.5945C27.5425 23.7758 28.1444 22.0347 28.9323 20.7714C29.7306 19.4965 30.5831 18.9062 31.5002 18.9062C32.4172 18.9062 33.2697 19.4965 34.0667 20.7714C34.8559 22.0347 35.4578 23.7758 35.9035 25.5945C36.3452 27.4003 36.6177 29.215 36.7805 30.5842C36.8192 30.9209 36.8524 31.2262 36.88 31.5H32.4689V41.8333C32.4689 42.7754 32.0947 43.6789 31.4285 44.345C30.7624 45.0112 29.8589 45.3854 28.9168 45.3854C27.9748 45.3854 27.0713 45.0112 26.4051 44.345C25.739 43.6789 25.3647 42.7754 25.3647 41.8333V40.5417C25.3647 40.2847 25.4668 40.0383 25.6485 39.8567C25.8302 39.675 26.0766 39.5729 26.3335 39.5729C26.5904 39.5729 26.8368 39.675 27.0185 39.8567C27.2002 40.0383 27.3022 40.2847 27.3022 40.5417V41.8333C27.3022 42.2615 27.4724 42.6722 27.7751 42.975C28.0779 43.2778 28.4886 43.4479 28.9168 43.4479C29.345 43.4479 29.7557 43.2778 30.0585 42.975C30.3613 42.6722 30.5314 42.2615 30.5314 41.8333Z" fill="#5D0E41"/>
</svg>
