<svg width="96" height="95" viewBox="0 0 96 95" fill="none" xmlns="http://www.w3.org/2000/svg">
<rect x="0.957031" y="0.100098" width="94.2947" height="94.2947" rx="15.7158" fill="white"/>
<path d="M43.1279 59.4113H24.7929C24.4436 59.4113 24.138 59.5423 23.8761 59.8042C23.6142 60.0661 23.4832 60.3717 23.4832 60.7209V68.3169C23.4832 68.6661 23.6142 68.9717 23.8761 69.2337C24.138 69.4956 24.4436 69.6266 24.7929 69.6266H43.1279C43.4772 69.6266 43.7828 69.4956 44.0447 69.2337C44.3066 68.9717 44.4376 68.6661 44.4376 68.3169V60.7209C44.4376 60.3717 44.3066 60.0661 44.0447 59.8042C43.7828 59.5423 43.4772 59.4113 43.1279 59.4113ZM42.0802 67.2692H25.8406V62.0306H42.0802V67.2692ZM72.726 55.2204H65.13L74.0356 27.7178C74.3849 26.8447 74.3849 25.9279 74.0356 24.9675C73.6864 24.0071 72.9879 23.3523 71.9402 23.0031C71.591 23.0031 71.1544 23.0031 70.6306 23.0031C70.1067 23.0031 69.5392 23.2213 68.928 23.6579C68.3168 24.0944 67.8366 24.662 67.4874 25.3604L55.4386 55.2204H39.199L27.1502 25.3604C26.801 24.662 26.3208 24.0944 25.7096 23.6579C25.0985 23.2213 24.5309 23.0031 24.0071 23.0031C23.4832 23.0031 23.0467 23.0031 22.6974 23.0031C21.6497 23.3523 20.9512 23.9635 20.602 24.8366C20.2528 25.7097 20.2528 26.6701 20.602 27.7178L29.5076 55.2204H21.9116C20.8639 55.2204 19.9908 55.5697 19.2923 56.2681C18.5939 56.9666 18.2446 57.8397 18.2446 58.8874V70.4123C18.2446 71.2854 18.5939 72.1149 19.2923 72.9007C19.9908 73.6865 20.8639 74.0794 21.9116 74.0794H22.1736V76.9606C22.1736 77.3098 22.3045 77.5718 22.5665 77.7464C22.8284 77.921 23.134 78.0083 23.4832 78.0083H30.8173C31.1665 78.0083 31.4284 77.921 31.603 77.7464C31.7777 77.5718 31.865 77.3098 31.865 76.9606V74.0794H62.7727V76.9606C62.7727 77.3098 62.86 77.5718 63.0346 77.7464C63.2092 77.921 63.4711 78.0083 63.8204 78.0083H71.1544C71.5037 78.0083 71.8092 77.921 72.0712 77.7464C72.3331 77.5718 72.4641 77.3098 72.4641 76.9606V74.0794H72.726C73.7737 74.0794 74.6468 73.6865 75.3453 72.9007C76.0438 72.1149 76.393 71.2854 76.393 70.4123V58.8874C76.393 57.8397 76.0438 56.9666 75.3453 56.2681C74.6468 55.5697 73.7737 55.2204 72.726 55.2204ZM69.8448 26.1462C69.8448 25.9716 70.0194 25.797 70.3686 25.6224C70.7179 25.4477 71.0235 25.4041 71.2854 25.4914C71.5473 25.5787 71.7219 25.7533 71.8092 26.0153C71.8966 26.2772 71.8529 26.5828 71.6783 26.932L62.5107 55.2204H58.0579L69.8448 26.1462ZM22.9594 26.932C22.7847 26.5828 22.7411 26.2772 22.8284 26.0153C22.9157 25.7533 23.134 25.5351 23.4832 25.3604H23.7452C24.269 25.3604 24.6183 25.6224 24.7929 26.1462L36.5797 55.2204H32.1269L22.9594 26.932ZM29.5076 75.6509H24.7929V74.0794H29.5076V75.6509ZM69.8448 75.6509H65.13V74.0794H69.8448V75.6509ZM73.7737 70.4123C73.7737 70.587 73.6864 70.8052 73.5118 71.0672C73.3372 71.3291 73.0752 71.4601 72.726 71.4601H21.9116C21.5624 71.4601 21.3005 71.3291 21.1259 71.0672C20.9512 70.8052 20.8639 70.587 20.8639 70.4123V58.8874C20.8639 58.5382 20.9512 58.2326 21.1259 57.9707C21.3005 57.7087 21.5624 57.5778 21.9116 57.5778H72.726C73.0752 57.5778 73.3372 57.7087 73.5118 57.9707C73.6864 58.2326 73.7737 58.5382 73.7737 58.8874V70.4123ZM67.4874 60.9829C66.4397 60.9829 65.5666 61.3321 64.8681 62.0306C64.1696 62.7291 63.8204 63.5585 63.8204 64.5189C63.8204 65.4793 64.1696 66.3524 64.8681 67.1382C65.5666 67.924 66.396 68.3169 67.3564 68.3169C68.3168 68.3169 69.1899 67.924 69.9757 67.1382C70.7615 66.3524 71.1544 65.4793 71.1544 64.5189C71.1544 63.5585 70.7615 62.7291 69.9757 62.0306C69.1899 61.3321 68.3605 60.9829 67.4874 60.9829ZM67.4874 65.6976C67.1382 65.6976 66.8326 65.6103 66.5707 65.4357C66.3087 65.2611 66.1778 64.9991 66.1778 64.6499C66.1778 64.3006 66.3087 63.9951 66.5707 63.7331C66.8326 63.4712 67.1382 63.3402 67.4874 63.3402C67.8366 63.3402 68.0986 63.4712 68.2732 63.7331C68.4478 63.9951 68.5351 64.3006 68.5351 64.6499C68.5351 64.9991 68.4478 65.2611 68.2732 65.4357C68.0986 65.6103 67.8366 65.6976 67.4874 65.6976ZM57.5341 60.9829C56.4864 60.9829 55.6133 61.3321 54.9148 62.0306C54.2163 62.7291 53.8671 63.5585 53.8671 64.5189C53.8671 65.4793 54.2163 66.3524 54.9148 67.1382C55.6133 67.924 56.4864 68.3169 57.5341 68.3169C58.5818 68.3169 59.4549 67.924 60.1534 67.1382C60.8519 66.3524 61.2011 65.4793 61.2011 64.5189C61.2011 63.5585 60.8519 62.7291 60.1534 62.0306C59.4549 61.3321 58.5818 60.9829 57.5341 60.9829ZM57.5341 65.6976C57.1848 65.6976 56.8793 65.6103 56.6173 65.4357C56.3554 65.2611 56.2244 64.9991 56.2244 64.6499C56.2244 64.3006 56.3554 63.9951 56.6173 63.7331C56.8793 63.4712 57.1848 63.3402 57.5341 63.3402C57.8833 63.3402 58.1889 63.4712 58.4508 63.7331C58.7128 63.9951 58.8437 64.3006 58.8437 64.6499C58.8437 64.9991 58.7128 65.2611 58.4508 65.4357C58.1889 65.6103 57.8833 65.6976 57.5341 65.6976ZM33.6985 25.6224C35.6193 23.8762 37.7147 22.5229 39.9848 21.5625C42.2548 20.602 44.6995 20.1218 47.3188 20.1218C49.9381 20.1218 52.3828 20.602 54.6529 21.5625C56.9229 22.5229 59.0183 23.8762 60.9392 25.6224C61.1138 25.9716 61.3757 26.1462 61.725 26.1462C62.0742 26.1462 62.3798 26.0153 62.6417 25.7533C62.9036 25.4914 63.0346 25.1858 63.0346 24.8366C63.0346 24.4873 62.86 24.2254 62.5107 24.0508C60.5899 21.9553 58.2762 20.3838 55.5696 19.3361C52.863 18.2883 50.1127 17.7645 47.3188 17.7645C44.5249 17.7645 41.7746 18.2883 39.068 19.3361C36.3614 20.3838 34.0477 21.9553 32.1269 24.0508C31.7777 24.2254 31.603 24.4873 31.603 24.8366C31.603 25.1858 31.734 25.4914 31.9959 25.7533C32.2579 26.0153 32.5635 26.1462 32.9127 26.1462C33.2619 26.1462 33.5239 25.9716 33.6985 25.6224ZM57.796 30.0752C58.1452 30.0752 58.4508 29.9442 58.7128 29.6823C58.9747 29.4203 59.1057 29.1148 59.1057 28.7655C59.1057 28.4163 58.931 28.1544 58.5818 27.9797C55.4386 24.8366 51.6843 23.265 47.3188 23.265C42.9533 23.265 39.199 24.8366 36.0558 27.9797C35.7066 28.1544 35.532 28.4163 35.532 28.7655C35.532 29.1148 35.663 29.4203 35.9249 29.6823C36.1868 29.9442 36.4924 30.0752 36.8416 30.0752C37.1909 30.0752 37.4528 29.9005 37.6274 29.5513C40.4213 26.932 43.6518 25.6224 47.3188 25.6224C50.9858 25.6224 54.2163 26.932 57.0102 29.5513C57.1848 29.9005 57.4468 30.0752 57.796 30.0752ZM39.9848 31.6467C39.6356 31.996 39.4609 32.3452 39.4609 32.6945C39.4609 33.0437 39.5919 33.3056 39.8538 33.4803C40.1158 33.6549 40.4213 33.7858 40.7706 33.8731C41.1198 33.9605 41.3817 33.8295 41.5564 33.4803C43.1279 31.9087 45.0488 31.1229 47.3188 31.1229C49.5889 31.1229 51.5097 31.9087 53.0813 33.4803C53.2559 33.8295 53.5178 34.0041 53.8671 34.0041C54.2163 34.0041 54.5219 33.8731 54.7838 33.6112C55.0457 33.3493 55.1767 33.0437 55.1767 32.6945C55.1767 32.3452 55.0021 31.996 54.6529 31.6467C52.732 29.7259 50.2874 28.7655 47.3188 28.7655C44.3503 28.7655 41.9056 29.7259 39.9848 31.6467Z" fill="#5D0E41"/>
</svg>
